<?xml version="1.0" standalone="no"?><!DOCTYPE svg PUBLIC "-//W3C//DTD SVG 1.1//EN" "http://www.w3.org/Graphics/SVG/1.1/DTD/svg11.dtd"><svg t="1546496217552" class="icon" style="" viewBox="0 0 1024 1024" version="1.1" xmlns="http://www.w3.org/2000/svg" p-id="2174" xmlns:xlink="http://www.w3.org/1999/xlink" width="64" height="64"><defs><style type="text/css"></style></defs><path d="M453.983568 689.114046H319.049279v-345.843429h132.299975c63.551549 0 102.338494 33.313312 102.338494 86.276353 0 35.947626-26.363643 68.543421-59.676955 74.539817v3.833593c47.212651 5.996396 77.14338 38.346185 77.143381 84.1238 0 60.896734-43.594313 97.069866-117.170606 97.069866z m-91.790988-307.74325v110.969204h69.025183c52.276274 0 78.844922-18.696456 78.844922-55.351349 0-35.230109-24.918357-55.607605-67.825904-55.607605z m0 269.632822h85.32308c52.009768 0 79.326684-21.084764 79.326684-61.11199s-28.280439-60.394472-83.406283-60.394472h-81.243481z m322.595863 38.110428h-43.143301v-345.843429h43.143301z" fill="" p-id="2175"></path><path d="M511.999982 1023.999959a76.538616 76.538616 0 0 1-38.346185-10.25025L96.629108 796.065153A76.876874 76.876874 0 0 1 58.282923 729.684535V294.325674a76.876874 76.876874 0 0 1 38.346185-66.421619L473.653797 10.25025a77.051128 77.051128 0 0 1 76.682119 0l377.03494 217.653805a76.876874 76.876874 0 0 1 38.346185 66.421619v435.358861a76.876874 76.876874 0 0 1-38.346185 66.380618L550.335916 1013.749709a76.610367 76.610367 0 0 1-38.335934 10.25025z m0-993.341462a45.982621 45.982621 0 0 0-22.991311 6.15015L111.942981 254.482953a46.126124 46.126124 0 0 0-23.001561 39.842721v435.358861a46.228627 46.228627 0 0 0 23.001561 39.842721l377.04519 217.684556a46.259378 46.259378 0 0 0 46.003121 0L912.026232 769.527256a46.126124 46.126124 0 0 0 23.011811-39.842721V294.325674a46.126124 46.126124 0 0 0-23.011811-39.842721L534.991292 36.798397a46.003121 46.003121 0 0 0-23.011811-6.1399z" fill="" p-id="2176"></path></svg>