<?xml version="1.0" standalone="no"?><!DOCTYPE svg PUBLIC "-//W3C//DTD SVG 1.1//EN" "http://www.w3.org/Graphics/SVG/1.1/DTD/svg11.dtd"><svg t="1548068380372" class="icon" style="" viewBox="0 0 1024 1024" version="1.1" xmlns="http://www.w3.org/2000/svg" p-id="1252" xmlns:xlink="http://www.w3.org/1999/xlink" width="64" height="64"><defs><style type="text/css"></style></defs><path d="M91.19724903 686.93981942c0.3918104-5.58528417 0.6889559-11.17845561 1.19384148-16.7532208 3.57100543-39.40727952 15.6014533-75.60118132 41.15859751-106.47276171 23.03272239-27.81860527 52.68679156-45.41067158 87.13989438-55.22961961 30.7348395-8.76184743 62.10341221-11.00490227 93.87431633-8.44366597 29.6777369 2.39031269 57.89341206 9.87154299 84.09218074 24.30282054a171.05589204 171.05589204 0 0 1 27.3584234 18.72279784c-2.19835111 0.75732738-3.99700257 1.38054358-5.79828173 1.9985003-39.04439435 13.34525172-71.75406842 35.54175835-96.28829475 69.08501643-18.13639411 24.80244661-29.32536868 52.60790316-35.34190952 82.60119378-1.55409687 7.75470804-1.48046796 7.77048657-9.26147353 7.77048652h-187.28845079l-0.83884352-8.71714369v-8.86440363z" fill="" p-id="1253"></path><path d="M312.86254397 763.3640678c0.40758891-11.78852508 0.35499593-23.41664355 1.30428487-34.96061612 2.01164902-24.50793089 7.85463449-48.11127651 18.57290821-70.34722736 21.87043588-45.36596787 57.72511826-74.34422991 105.37095543-89.2199128 28.77841119-8.98273424 58.36937245-11.67019245 88.39421601-10.33961207 26.36969228 1.16754602 52.00309519 5.96394785 76.29539672 16.49025998 55.88176308 24.22130437 89.54335379 66.94977728 103.61437789 125.67151592 4.91999402 20.52407705 6.33472233 41.39000333 5.23554778 62.7029627l-398.78768691 0.00262975z" fill="" p-id="1254"></path><path d="M597.81457354 542.7348395c1.10706379-0.91773195 2.05109323-1.72765226 3.02404583-2.50075608 23.39297786-18.53346605 50.10451932-29.89073446 79.15904005-35.71268399 38.53425125-7.7231531 77.22101994-8.2727424 115.37923527 1.74342876 70.84159393 18.59657598 115.05316453 63.96254385 132.62682464 135.0697283 4.94628947 20.003415 6.30053759 40.42230814 5.40384161 60.99371866-0.02629548 0.58377198-0.10518388 1.1622865-0.18144261 1.96694531h-195.30349184c-16.11948762-80.13725213-61.8667469-134.70421337-140.10805295-161.56038096zM387.14892139 359.78260875c-1.10706379 35.34979676-12.74044176 64.6646485-39.47039148 86.65341703-35.0210963 28.8125959-84.84687836 26.64842949-118.12980341-4.55973655-32.55715671-30.52446969-44.09323796-82.43552767-26.62476376-123.47316481 14.19724402-33.35655599 40.06994196-51.99520594 75.94566026-56.38138913 23.67697457-2.89519627 45.94448242 1.68031878 65.81904575 15.27275281 23.21942447 15.88282229 36.1781233 38.36332565 40.78519333 65.837454 0.98873113 5.90083588 1.2175072 11.9278937 1.67505931 16.65066665zM608.26462903 420.31088602c-0.37866367 31.38172142-10.52894393 58.96103369-33.71418371 80.66054601-36.87496846 34.51621275-91.28941228 32.92267163-126.60502635-3.22389877-30.10373405-30.81109821-40.1882726-80.89194975-23.44819854-120.11252716 14.27876218-33.45648042 40.15671761-52.20294399 76.16128761-56.52075776 25.10222185-3.01089914 48.41368149 2.3193135 68.91672258 17.59469605 21.28140443 15.85652685 33.09885471 37.47451892 37.56392637 63.36562314 0.49962608 2.90571522 0.90984471 5.84561522 1.08339805 8.78551517 0.18670209 3.14500828 0.04207396 6.30316732 0.04207399 9.45080332zM638.09488126 358.65187722c0.48384756-28.72582023 9.87943022-54.29085168 32.1443083-74.10756462 18.92790619-16.84788771 41.55303969-23.72430804 66.64474256-23.2378307 44.41405121 0.86251126 81.44153706 31.13190942 90.55838244 75.16466721 8.05974277 38.9365807-0.72577037 74.01026992-28.6521893 102.77290261-38.32914095 39.48090843-100.24585306 35.95197698-134.79625055-6.86327156-17.21866217-21.3366251-25.42303306-45.86822372-25.89899345-73.72890294z" fill="" p-id="1255"></path></svg>