<?xml version="1.0" standalone="no"?><!DOCTYPE svg PUBLIC "-//W3C//DTD SVG 1.1//EN" "http://www.w3.org/Graphics/SVG/1.1/DTD/svg11.dtd"><svg t="1544086668404" class="icon" style="" viewBox="0 0 1024 1024" version="1.1" xmlns="http://www.w3.org/2000/svg" p-id="1722" xmlns:xlink="http://www.w3.org/1999/xlink" width="64" height="64"><defs><style type="text/css"></style></defs><path d="M1012.058076 847.412995l-50.996971 9.591907c-3.165329 10.583071-7.321822 20.750492-12.469479 30.278453l29.255316 42.907797c2.717707 3.996628 2.174166 10.039529-1.246948 13.492616l-36.417273 36.577138c-3.421113 3.453086-9.432042 3.996628-13.42867 1.246948l-42.971743-29.5111c-9.495988 5.115684-19.599463 9.208231-30.15056 12.341587l-9.527961 51.028944c-0.895245 4.76398-5.531333 8.632716-10.391232 8.632716l-51.50854 0c-4.859899 0-9.495988-3.868736-10.391232-8.632716l-9.62388-51.50854c-10.103475-3.101383-19.791301-7.161957-28.935586-12.117776l-42.428201 29.159397c-3.996628 2.74968-10.007556 2.174166-13.42867-1.246948l-36.417273-36.577138c-3.421113-3.421113-3.996628-9.464015-1.246948-13.492616l29.031505-42.620039c-5.051738-9.432042-9.176258-19.471571-12.277641-29.926749l-51.028944-9.591907c-4.76398-0.895245-8.600743-5.563306-8.600743-10.423205L596.856402 785.257439c0-4.859899 3.868736-9.527961 8.600743-10.423205l51.060917-9.591907c3.06941-10.231367 7.066038-20.047085 12.021857-29.319262l-29.383208-43.099635c-2.717707-3.996628-2.174166-10.039529 1.246948-13.492616l36.449246-36.577138c3.421113-3.453086 9.432042-3.996628 13.42867-1.246948l42.652012 29.287289c9.208231-5.019765 19.023949-9.112311 29.223343-12.245668l9.62388-51.50854c0.895245-4.76398 5.531333-8.664689 10.391232-8.664689l51.50854 0c4.859899 0 9.495988 3.868736 10.391232 8.664689l9.527961 50.996971c10.647017 3.133356 20.846411 7.321822 30.438318 12.501452l43.195554-29.670965c3.996628-2.717707 10.007556-2.174166 13.42867 1.246948l36.417273 36.577138c3.421113 3.421113 3.996628 9.464015 1.246948 13.492616l-29.543073 43.355419c5.019765 9.368096 9.112311 19.311706 12.213695 29.670965l51.060917 9.62388c4.76398 0.895245 8.632716 5.563306 8.632716 10.423205l0 51.732351C1020.658819 841.849689 1016.822056 846.517751 1012.058076 847.412995zM808.709651 732.917601c-43.035689 0-77.950229 35.042433-77.950229 78.26996 0 43.2595 34.914541 78.26996 77.950229 78.26996 43.067662 0 77.982203-35.042433 77.982203-78.26996C886.691854 767.960034 851.777313 732.917601 808.709651 732.917601zM827.41387 504.917975c2.685734-18.448434 4.540169-37.152652 4.540169-56.336466 0-213.196116-172.078809-386.010304-384.347707-386.010304S63.258626 235.385394 63.258626 448.581509s172.078809 386.010304 384.347707 386.010304c19.087895 0 37.728167-1.854435 56.080682-4.572142 1.310894 21.453898 4.732007 42.268336 10.199394 62.315421-21.677709 3.229275-43.675149 5.467387-66.248103 5.467387C200.646704 897.802479 0.431636 696.820058 0.431636 448.90124S200.646704 0 447.606332 0s447.174696 200.982421 447.174696 448.90124c0 22.540981-2.206139 44.538421-5.403441 66.21613C869.458394 509.649983 848.739876 506.196896 827.41387 504.917975zM256.02398 596.77647l0-172.142755c0-40.733631 30.278453-73.793737 67.654916-73.793737l59.981391 0 0 0 127.892091 0 0 0 60.141256 0c37.344491 0 67.654916 33.028133 67.654916 73.793737l0 130.73769c-43.195554 28.903613-78.525744 68.582134-102.473538 115.166828L323.678896 670.538233C286.302432 670.538233 256.02398 637.510101 256.02398 596.77647zM419.725856 526.75555l0 79.452962 54.769788 0 0-79.452962c19.023949-10.615044 36.577138-27.880476 36.577138-50.45343 0-33.795485-28.647828-61.196366-63.946046-61.196366s-63.946046 27.368907-63.946046 61.196366C383.148718 498.875074 400.701908 516.140506 419.725856 526.75555zM447.606332 223.139726c-60.109283 0-63.78618 50.549349-63.946046 63.946046l0 63.754207L319.298592 350.839979 319.298592 293.288538c0 0 0.031973-134.286696 128.051956-134.286696 128.051956 0 128.051956 134.286696 128.051956 134.286696l0 57.583414-63.882099 0L511.520405 287.085771C511.392513 273.912886 507.715615 223.139726 447.606332 223.139726z" p-id="1723"></path></svg>