<?xml version="1.0" standalone="no"?><!DOCTYPE svg PUBLIC "-//W3C//DTD SVG 1.1//EN" "http://www.w3.org/Graphics/SVG/1.1/DTD/svg11.dtd"><svg t="1545393933576" class="icon" style="" viewBox="0 0 1024 1024" version="1.1" xmlns="http://www.w3.org/2000/svg" p-id="2374" xmlns:xlink="http://www.w3.org/1999/xlink" width="64" height="64"><defs><style type="text/css"></style></defs><path d="M519.314286 416.914286L438.857143 490.057143l-80.457143-73.142857c-14.628571-14.628571-36.571429-14.628571-51.2 0-14.628571 7.314286-14.628571 36.571429 0 51.2l43.885714 43.885714c-14.628571 0-21.942857 14.628571-21.942857 29.257143 0 21.942857 14.628571 36.571429 36.571429 36.571428h36.571428v43.885715H365.714286c-21.942857 0-36.571429 14.628571-36.571429 36.571428s14.628571 36.571429 36.571429 36.571429h36.571428v36.571428c0 21.942857 14.628571 36.571429 36.571429 36.571429s36.571429-14.628571 36.571428-36.571429v-36.571428H512c21.942857 0 36.571429-14.628571 36.571429-36.571429s-14.628571-36.571429-36.571429-36.571428h-36.571429v-43.885715H512c21.942857 0 36.571429-14.628571 36.571429-36.571428 0-14.628571-7.314286-29.257143-21.942858-29.257143l43.885715-43.885714c14.628571-14.628571 14.628571-43.885714 0-51.2-14.628571-14.628571-36.571429-14.628571-51.2 0zM768 219.428571h-658.285714C51.2 219.428571 0 270.628571 0 329.142857v512c0 58.514286 51.2 109.714286 109.714286 109.714286h658.285714c58.514286 0 109.714286-51.2 109.714286-109.714286v-512c0-58.514286-51.2-109.714286-109.714286-109.714286z m36.571429 621.714286c0 21.942857-14.628571 36.571429-36.571429 36.571429h-658.285714c-21.942857 0-36.571429-14.628571-36.571429-36.571429v-512c0-21.942857 14.628571-36.571429 36.571429-36.571428h658.285714c21.942857 0 36.571429 14.628571 36.571429 36.571428v512zM914.285714 73.142857h-658.285714c-21.942857 0-36.571429 14.628571-36.571429 36.571429s14.628571 36.571429 36.571429 36.571428h658.285714c21.942857 0 36.571429 14.628571 36.571429 36.571429v512c0 21.942857 14.628571 36.571429 36.571428 36.571428s36.571429-14.628571 36.571429-36.571428v-512c0-58.514286-51.2-109.714286-109.714286-109.714286z" p-id="2375"></path></svg>