<?xml version="1.0" encoding="utf-8"?>
<!-- Generator: Adobe Illustrator 22.0.0, SVG Export Plug-In . SVG Version: 6.00 Build 0)  -->
<svg version="1.1" id="图层_1" xmlns="http://www.w3.org/2000/svg" xmlns:xlink="http://www.w3.org/1999/xlink" x="0px" y="0px"
	 viewBox="0 0 230.4 81.3" style="enable-background:new 0 0 230.4 81.3;" xml:space="preserve">
<style type="text/css">
	.st0{fill:#3CB3E4;}
	.st1{fill:#42CCBA;}
</style>
<g id="XMLID_20_">
	<path id="XMLID_21_" class="st0" d="M21.2,31.6c0.6-0.5,0.4-1.1,0.5-1.7c1.1-5.3,2.7-10.5,4-15.8c0.3-1,0.6-2.1,0.8-3.1
		c0.1-0.5,0.3-0.6,0.8-0.6c5,0.4,10,0.7,15,1.1c0.1,0,0.2,0,0.4,0c0.8,0,0.8,0.3,0.5,0.9c-2.3,5.3-4.4,10.6-6.3,16.1
		c-2.4,6.8-4.5,13.7-6.5,20.6C30.2,49.7,30,50,29.3,50c-4.6,0-9.2-0.1-13.7,0.1c-1.1,0-2.4,0.3-3.2-0.2s-0.7-2-1-3
		C8.3,35.3,4.5,24,0.1,12.9C-0.2,12,0,12,0.7,11.9c4.5-0.6,8.9-1.2,13.4-1.8c1.4-0.2,1.4-0.2,1.8,1.1c1.6,5.8,3.4,11.6,4.8,17.5
		C20.8,29.6,21,30.5,21.2,31.6z"/>
</g>
<g id="XMLID_16_">
	<path id="XMLID_17_" class="st0" d="M92.2,20.2c-4-4.5-9.1-6.9-15.1-7.1c-3.6-0.1-7.2,0.1-10.7,0.5c-0.7,0.1-1.2,0.3-1,1.2
		c0.2,0.8,0.2,1.7,0.3,2.5c0.4,4.9,0.9,9.8,0.7,14.7c-0.2,5.8-0.7,11.5-1.3,17.2C65,49.9,65.3,50,65.8,50c2.4,0,4.7,0,6.2,0
		c3.3,0.2,5.7,0.1,8.1,0c0.5,0,0.7-0.1,0.6-0.7c-0.3-2-0.5-4-0.8-6c-0.1-0.6,0-0.9,0.7-0.9c1.5,0,3-0.3,4.4-0.8
		c5.2-2,8.2-6,9.5-11.3C95.4,26.6,94.9,23.2,92.2,20.2z M83.5,29.1c-1,1.4-2.5,2.1-4,3c-0.1-2.8-0.3-5.4-0.4-8.1
		c1.8,1,3.5,1.9,4.6,3.6C84.1,28.2,83.8,28.7,83.5,29.1z"/>
</g>
<path id="XMLID_12_" class="st1" d="M201.8,31.9c-1.9-5.3-4.7-10-9.2-13.4c-2.2-1.6-4.6-2.7-7.4-2.8c-2.4-0.1-4.8,0-7.3-0.1
	c-2.6,0.1-5.4-0.2-8.2-0.2c-0.3,0-0.7-0.2-0.6,0.5c0.4,6.1,0.6,12.2,0.6,18.3c0,5.1-0.1,10.3-0.4,15.4c0,0.7,0.2,1,0.9,0.9
	c4.8,0,9.7,0,14.5,0c3,0,5.8-0.8,8.2-2.7c4.1-3.4,7-7.6,8.8-12.6C202.1,34.2,202.2,33,201.8,31.9z M182.2,28.5c0-0.5,0-0.6,0.6-0.5
	c2.6,0.8,4.7,2.2,6.2,4.4c0.4,0.5,0.3,0.9,0,1.4c-1.6,2.2-3.7,3.7-6.2,4.6c-0.6,0.2-0.9,0.2-0.8-0.6c0.1-0.3,0-0.6,0-0.9L182.2,28.5
	z"/>
<g id="XMLID_8_">
	<path id="XMLID_9_" class="st1" d="M164.7,24c-1.8-4.1-5-6.6-9.4-7.6c-3.8-0.9-7.6-0.9-11.4-0.2c-4.1,0.8-7.1,3-9.1,6.6
		c-1.8,3.1-2.4,6.6-2.4,10.8c0,0.7,0.1,2.2,0.4,3.6c1.2,5.7,4.4,9.8,9.8,11.9c3.5,1.4,7.2,1.6,10.9,0.9c5.2-0.9,9.2-3.6,11.4-8.5
		C167.5,35.7,167.3,29.8,164.7,24z M149.9,37.9c-2.8,0-5.6-2.8-5.6-5.6c0-2.6,2.7-5.2,5.6-5.2c2.8,0,5.2,2.4,5.2,5.3
		C155.1,35.3,152.7,37.9,149.9,37.9z"/>
</g>
<g id="LEBnf3.tif_1_">
	<g id="XMLID_6_">
		<path id="XMLID_7_" class="st1" d="M223.1,27.7c1.8-0.1,3.6-0.1,5.4-0.1c0.4,0,0.5,0,0.5,0.5c-0.1,3.1-0.1,6.2,0.1,9.3
			c0,0.6-0.1,0.8-0.7,0.8c-3.2-0.2-6.4-0.2-9.5-0.5c-0.6-0.1-1.2,0.1-1.2,0.8c-0.2,1.5,0.1,1.8,1.6,1.7c3.4-0.1,6.8-0.3,10.2-0.5
			c0.6,0,0.9,0,0.9,0.8c-0.2,3.4-0.8,6.4-1.7,9.7c-0.1,0.4-0.3,0.4-0.6,0.4c-7.8-0.6-15.5-0.6-23.3-0.3c-0.8,0-0.6-0.4-0.6-0.8
			c0.4-3.4,0.7-6.8,0.8-10.2c0.2-8.2,0.3-16.4-0.4-24.6c-0.1-0.7,0-1,0.9-0.9c5,0.4,10.1,0.6,15.2,0.4c1.7-0.1,3.3-0.2,5-0.4
			c0.4,0,0.6,0.1,0.7,0.4c2,3.8,2.9,6.3,3.5,9c0.1,0.5,0.6,3.2-1.1,2.7c-4.1-0.8-6.5-0.7-10.7-0.8c-0.5,0-0.8,0.1-0.8,0.7
			c0,0.4,0.1,1,0,1.5c-0.1,0.8,0.2,0.8,0.8,0.8C219.7,27.9,221.4,27.8,223.1,27.7C223.1,27.7,223.1,27.8,223.1,27.7z"/>
	</g>
</g>
<g id="XMLID_4_">
	<path id="XMLID_5_" class="st1" d="M126.4,21c4.7,2.5,4.1-1.3,3.8-3.5c-0.6-3.1-1.8-6.4-2.3-7.3c-1-1.8-2.6-2.6-4.8-2.8
		c-2.7-0.3-16.9-0.4-23.6,15.8c-6.5,15.7,4.7,31.7,28.3,26.5c1.1-0.2,1.8-1.2,1.8-2.3l-0.2-10.8c0-1.3-1.2-2.3-2.5-2
		c-4.2,0.9-12.4,1.8-12.6-4.6C113.8,22.8,121,18.1,126.4,21z"/>
</g>
<g id="_x34_qQKDM.tif_1_">
	<g id="XMLID_2_">
		<path id="XMLID_3_" class="st0" d="M53,49.7c-2.1,0-4.2,0.5-6.4,0.5c-0.5,0-0.6,0-0.5-0.6c1.1-7.1,1-14.3,0.8-21.4
			c-0.1-3.7-0.4-7.4-0.6-11.1c0-0.6,0.1-0.7,0.7-0.7c4.1,0.1,8.3,0.1,12.4,0.1c0.5,0,0.6,0.1,0.5,0.6c-0.6,5.5-0.9,11-0.8,16.5
			c0.1,5.2,0.4,10.4,0.8,15.6c0,0.5,0,0.6-0.5,0.6C57.2,49.7,55.1,49.7,53,49.7C52.2,49.6,53,49.6,53,49.7z"/>
	</g>
</g>
<path id="XMLID_1_" class="st0" d="M55.9,10.9l-7.4-2c-1.1-0.3-1.8-1.5-1.5-2.6l1.3-4.7c0.3-1.1,1.5-1.8,2.6-1.5l7.4,2
	c1.1,0.3,1.8,1.5,1.5,2.6l-1.3,4.7C58.2,10.6,57.1,11.2,55.9,10.9z"/>
<path class="st1" d="M14.9,64.8v-2.2h6c0.2-0.5,0.5-1.2,0.8-2c0.1-0.3,0.2-0.5,0.3-0.7l2.6,0.3c-0.1,0.2-0.2,0.6-0.4,1
	c-0.3,0.7-0.5,1.2-0.6,1.5h11.9v2.2H22.6c-0.8,1.7-1.8,3.2-2.8,4.6v11.6h-2.3v-8.9c-0.2,0.2-0.6,0.6-1.2,1.2
	c-0.5,0.5-0.9,0.9-1.2,1.2c-0.2-0.3-0.4-0.8-0.7-1.6c-0.2-0.4-0.3-0.6-0.4-0.8c2.6-2.2,4.6-4.7,5.9-7.3h-5L14.9,64.8L14.9,64.8z
	 M21.5,72.3v-2.1h5.2v-4.1h2.4v4.1h5.2v2.1h-5.2v5.6h6.3v2H20.6v-2h6.2v-5.6H21.5z"/>
<path class="st1" d="M59.2,80.4c-0.4-0.8-0.7-1.4-1-1.8c-0.7,0.1-0.9,0.1-0.7,0c-2.7,0.5-4.8,0.9-6.3,1.2l-0.4-2.1
	c2.5-0.3,5-0.7,7.6-1.2c0,0.2,0,0.6-0.1,1c0,0.4,0,0.7,0,0.9c2.1-0.9,3.9-1.7,5.4-2.6c-0.4-1.2-0.8-2.6-1.1-4.2L59,72.1L58.7,70
	l3.5-0.4c0-0.1,0-0.2,0-0.4c-0.1-0.7-0.2-1.5-0.2-2.3l-3,0.3l-0.2-1.5c-0.8,1.2-2,3-3.5,5.4c-0.5,0.8-0.9,1.3-1.2,1.7
	c1.2-0.2,2.6-0.3,4.1-0.4c-0.1,0.6-0.1,1.2-0.1,2c-2.2,0.2-4.4,0.5-6.5,0.9l-0.7-2c0.6-0.4,1.1-0.9,1.5-1.5c0.3-0.4,0.7-1,1.2-1.9
	c0.3-0.5,0.5-0.8,0.7-1.1c-1.1,0.1-2.1,0.1-3.2,0.3l-0.7-2c0.5-0.4,0.8-0.8,1.1-1.3c1.2-1.8,2.2-3.7,3.1-5.9l2.3,0.8
	c-0.1,0.2-0.3,0.4-0.5,0.8c-1.5,2.7-2.6,4.5-3.3,5.4l2.4-0.1c0.2-0.3,0.5-0.7,0.8-1.3c0.2-0.4,0.4-0.7,0.5-0.9l2,0.8l-0.1-0.3
	l3.1-0.3c-0.1-1.6-0.2-3.2-0.2-4.9h2.3c0,0.5,0,1.3,0.1,2.3c0,1.1,0,1.8,0.1,2.3l7-0.9l0.3,2l-7.2,0.9c0.1,0.2,0.1,0.6,0.2,1.2
	c0.1,0.5,0.1,0.9,0.1,1.2c0,0.1,0,0.1,0,0.3l7.3-1.1l0.3,2.1l-7.3,1c0.3,1.2,0.6,2.3,0.8,3.2c1.1-0.7,2.4-1.9,4-3.5l1.6,1.4
	c-1.7,1.7-3.3,3.1-4.8,4.2c0.7,1.4,1.4,2,2.2,2c0.6,0.1,0.9-0.2,1.1-0.9c0.2-1.1,0.4-2,0.6-2.8c0.6,0.3,1.3,0.6,2,1
	c-0.2,1.1-0.4,2-0.7,2.8c-0.5,1.5-1.4,2.3-2.8,2.3c-1.7,0-3.1-1-4.3-3.1C63,78.6,61.2,79.5,59.2,80.4z M68.5,63.9
	c-1.1-0.9-2.1-1.7-3-2.3l1.4-1.4c0.5,0.3,1.3,0.8,2.4,1.6c0.3,0.2,0.5,0.3,0.6,0.4L68.5,63.9z"/>
<path class="st1" d="M89.9,73c-0.7-0.5-1.5-0.9-2.3-1.2c1.8-2.9,3.3-5.9,4.5-8.9l2.4,0.9C93.1,67.3,91.5,70.3,89.9,73z M88.9,81.2
	c-0.3-0.7-0.7-1.5-1.2-2.5c7.7-1.1,13.3-4.1,16.6-8.8l2,1.6C102.4,76.4,96.6,79.7,88.9,81.2z M97,73V60h2.5v13H97z M107.2,70.7
	c-1.4-1.8-3.3-4.1-5.7-6.9l1.9-1.3c2.2,2.4,4.2,4.6,5.9,6.7L107.2,70.7z"/>
<path class="st1" d="M126.5,81c-0.7-0.7-1.3-1.3-2-2c2.1-1.5,3.4-3.1,4.1-4.7c0.7-1.6,1.1-4,1.1-7.1v-6.9h2.5v7.4
	C132.5,73.5,130.6,78,126.5,81z M140,80.4c-2.4,0.1-3.6-1-3.5-3.5V60.2h2.6v16.4c-0.1,1.1,0.4,1.6,1.3,1.5h1
	c1.1,0.1,1.7-0.5,1.8-1.6c0-0.2,0-0.6,0.1-1.2c0.1-1.1,0.2-2,0.3-2.7c0.2,0.1,0.6,0.1,1.1,0.3c0.6,0.1,1,0.2,1.3,0.3
	c-0.1,1.8-0.3,3.3-0.5,4.7c-0.2,1.7-1.5,2.5-3.8,2.5L140,80.4L140,80.4z"/>
<path class="st1" d="M162.1,78.9l-0.4-2c2.4-0.4,4.4-0.6,6-0.9c-0.1,0.2-0.1,0.7-0.1,1.3c0.9-1.9,1.4-4.9,1.3-9v-6.4h5.5
	c-0.2-0.6-0.4-1.2-0.5-1.8l2.6-0.3c0,0.2,0.1,0.5,0.2,0.9c0.1,0.5,0.1,0.9,0.2,1.2h5.3v5.9h-11.3v0.4c0,0.7,0,1.4-0.1,2
	c0,0.1,0,0.3,0,0.4c-0.1,3.8-1,7.2-2.7,10.2c-0.7-0.7-1.2-1.2-1.6-1.5l0.7-1.2C165.9,78.4,164.1,78.6,162.1,78.9z M162.7,74.7
	l-0.6-2c0.4-0.3,0.9-0.9,1.5-1.7c0.4-0.7,0.9-1.4,1.4-2.4c-0.8,0.1-1.7,0.1-2.8,0.3l-0.5-2c0.1-0.1,0.1-0.1,0.2-0.2
	c0.2-0.2,0.5-0.7,1-1.5c0.9-1.8,1.7-3.5,2.4-5.2l2.1,0.7c-1.2,2.4-2.3,4.4-3.3,6c0.2,0,0.4,0,0.8,0c0.5-0.1,0.9-0.1,1.2-0.1l1-1.8
	l1.8,0.8c-1.2,2.1-2.5,4.3-4,6.7c0.3,0,0.7,0,1.3-0.1c0.8-0.1,1.4-0.1,1.8-0.2c0,0.2,0,0.6-0.1,1.1c0,0.4,0,0.7,0,0.9
	C165.5,74.3,163.8,74.5,162.7,74.7z M170.9,63.8V66h9.3v-2.2H170.9z M174.4,80.1v-4h-1.7v5H171V69.6h11.4v9c0.1,1.5-0.6,2.2-1.9,2.3
	c-0.1,0-0.4,0-0.7,0c-0.4,0.1-0.7,0.1-0.9,0.1l-0.3-1.1h-1.2v-3.8h-1.6v4H174.4z M172.7,71.4v2.9h1.7v-2.9H172.7z M175.9,71.4v2.9
	h1.6v-2.9H175.9z M180.7,71.4H179v2.9h1.7V71.4z M179.7,79.1c0.7,0.1,1-0.2,1-0.7v-2.3H179v3H179.7z"/>
<path class="st1" d="M198.5,68.5v-2.2h2.8v-3c-0.2,0-0.6,0-1.2,0c-0.6,0.1-1,0.1-1.3,0.1c-0.1-0.8-0.1-1.4-0.3-2
	c2.7-0.1,5.1-0.3,7.4-0.5l0.4,2c-0.9,0.1-1.9,0.1-2.8,0.3v3.2h2.7v2.2h-2.7v1.9l0.1-0.1c0.4,0.4,1,0.8,1.8,1.4
	c0.6,0.5,1,0.8,1.3,1.1l-1.2,1.8c-0.7-0.6-1.3-1.3-2-1.9v8.5h-2.2v-8.4c-0.7,1.7-1.4,3.1-2.3,4.3c-0.1-0.3-0.2-0.7-0.4-1.2
	s-0.3-0.9-0.4-1.2c1.4-1.9,2.4-4,3.2-6.4h-2.9L198.5,68.5L198.5,68.5z M206.6,71.5v-1.9h12.5v1.9H214V74h4.7v2H214v2.6h5.8v1.7
	h-14.2v-1.7h6.1v-2.7H207v-2h4.7v-2.5h-5.1V71.5z M207.3,67.7v-6.6h11.1v6.6H207.3z M209.6,63v2.8h6.7V63H209.6z"/>
</svg>
